<svg xmlns="http://www.w3.org/2000/svg" width="391" height="395" viewBox="0 0 391 395"><g transform="translate(1 15)" fill="none" stroke="#00203f" stroke-width="3"><circle cx="190" cy="190" r="190" stroke="none"/><circle cx="190" cy="190" r="188.5" fill="none"/></g><g transform="translate(0 3)" fill="none" stroke="#00203f" stroke-width="3"><circle cx="190" cy="190" r="190" stroke="none"/><circle cx="190" cy="190" r="188.5" fill="none"/></g><g transform="translate(11)" fill="none" stroke="#00203f" stroke-width="3"><circle cx="190" cy="190" r="190" stroke="none"/><circle cx="190" cy="190" r="188.5" fill="none"/></g><g transform="translate(61 86)"><g transform="translate(92 155)" fill="#fff"><path d="M 64.5330810546875 81.5 L 12.46691799163818 81.5 C 10.55678844451904 81.5 8.869611740112305 80.57798767089844 7.837999820709229 78.97037506103516 C 6.806399822235107 77.36274719238281 6.671199798583984 75.44483184814453 7.467058658599854 73.70839691162109 L 33.50014114379883 16.90894889831543 C 33.97448348999023 15.87403202056885 34.68251800537109 15.06394958496094 35.60458755493164 14.5012321472168 C 36.46288299560547 13.97742080688477 37.46410751342773 13.7005500793457 38.5 13.7005500793457 C 39.53589248657227 13.7005500793457 40.53711700439453 13.97742080688477 41.39541244506836 14.5012321472168 C 42.31748199462891 15.06394958496094 43.02551651000977 15.87403202056885 43.49985885620117 16.90894889831543 L 69.53294372558594 73.70839691162109 C 70.32879638671875 75.44484710693359 70.193603515625 77.36276245117188 69.16200256347656 78.97037506103516 C 68.13040161132812 80.57798767089844 66.44322204589844 81.5 64.5330810546875 81.5 Z" stroke="none"/><path d="M 38.5 16.20053863525391 C 37.92118453979492 16.20053863525391 36.49674224853516 16.37106323242188 35.7728157043457 17.95057678222656 L 9.739730834960938 74.75003814697266 C 9.123199462890625 76.09517669677734 9.67584228515625 77.20533752441406 9.942054748535156 77.62019348144531 C 10.20827484130859 78.03506469726562 10.98721313476562 78.99999237060547 12.46691131591797 78.99999237060547 L 64.53308868408203 78.99999237060547 C 66.01278686523438 78.99999237060547 66.79173278808594 78.03506469726562 67.05794525146484 77.62019348144531 C 67.32415771484375 77.20533752441406 67.87680053710938 76.09517669677734 67.26026916503906 74.75003814697266 L 41.2271842956543 17.95057678222656 C 40.50324249267578 16.37106323242188 39.07881546020508 16.20053863525391 38.5 16.20053863525391 M 38.5 11.20053863525391 C 41.42328262329102 11.20053863525391 44.34656524658203 12.75612640380859 45.77251434326172 15.8673095703125 L 71.80560302734375 72.66676330566406 C 74.23434448242188 77.96583557128906 70.36224365234375 83.99999237060547 64.53308868408203 83.99999237060547 L 12.46691131591797 83.99999237060547 C 6.63775634765625 83.99999237060547 2.765655517578125 77.96583557128906 5.19439697265625 72.66676330566406 L 31.22748565673828 15.8673095703125 C 32.65343475341797 12.75612640380859 35.57671737670898 11.20053863525391 38.5 11.20053863525391 Z" stroke="none" fill="#00203f"/></g><g fill="#adefd1" stroke="#00203f" stroke-width="5"><path d="M8,0H252a8,8,0,0,1,8,8V160a0,0,0,0,1,0,0H0a0,0,0,0,1,0,0V8A8,8,0,0,1,8,0Z" stroke="none"/><path d="M8,2.5H252A5.5,5.5,0,0,1,257.5,8V155a2.5,2.5,0,0,1-2.5,2.5H5A2.5,2.5,0,0,1,2.5,155V8A5.5,5.5,0,0,1,8,2.5Z" fill="none"/></g><g transform="translate(0 155)" fill="#fff" stroke="#00203f" stroke-width="5"><path d="M0,0H260a0,0,0,0,1,0,0V29a8,8,0,0,1-8,8H8a8,8,0,0,1-8-8V0A0,0,0,0,1,0,0Z" stroke="none"/><path d="M5,2.5H255A2.5,2.5,0,0,1,257.5,5V29a5.5,5.5,0,0,1-5.5,5.5H8A5.5,5.5,0,0,1,2.5,29V5A2.5,2.5,0,0,1,5,2.5Z" fill="none"/></g><path d="M991,331l-40,36.181L991,401" transform="translate(-906 -282)" fill="none" stroke="#00203f" stroke-linecap="round" stroke-linejoin="round" stroke-width="10"/><path d="M951,331l40,36.181L951,401" transform="translate(-766 -282)" fill="none" stroke="#00203f" stroke-linecap="round" stroke-linejoin="round" stroke-width="10"/><line y1="70" x2="40" transform="translate(115 50)" fill="none" stroke="#00203f" stroke-linecap="round" stroke-width="10"/></g></svg>